<?xml version="1.0" encoding="UTF-8" standalone="no"?>
<!-- Created with Inkscape (http://www.inkscape.org/) -->

<svg
   version="1.1"
   id="svg2"
   xml:space="preserve"
   width="576"
   height="384"
   viewBox="0 0 576 384"
   sodipodi:docname="output_example_Fs.svg"
   inkscape:version="1.1.2 (b8e25be833, 2022-02-05)"
   xmlns:inkscape="http://www.inkscape.org/namespaces/inkscape"
   xmlns:sodipodi="http://sodipodi.sourceforge.net/DTD/sodipodi-0.dtd"
   xmlns="http://www.w3.org/2000/svg"
   xmlns:svg="http://www.w3.org/2000/svg"><defs
     id="defs6"><clipPath
       clipPathUnits="userSpaceOnUse"
       id="clipPath20"><path
         d="M 54,36 H 388.8 V 259.2 H 54 Z"
         id="path18" /></clipPath><clipPath
       clipPathUnits="userSpaceOnUse"
       id="clipPath30"><path
         d="M 54,36 H 388.8 V 259.2 H 54 Z"
         id="path28" /></clipPath><clipPath
       clipPathUnits="userSpaceOnUse"
       id="clipPath40"><path
         d="M 54,36 H 388.8 V 259.2 H 54 Z"
         id="path38" /></clipPath><clipPath
       clipPathUnits="userSpaceOnUse"
       id="clipPath50"><path
         d="M 54,36 H 388.8 V 259.2 H 54 Z"
         id="path48" /></clipPath><clipPath
       clipPathUnits="userSpaceOnUse"
       id="clipPath60"><path
         d="m -1.75,-1.75 h 3.5 v 3.5 h -3.5 z"
         id="path58" /></clipPath><clipPath
       clipPathUnits="userSpaceOnUse"
       id="clipPath70"><path
         d="M 54,36 H 388.8 V 259.2 H 54 Z"
         id="path68" /></clipPath><clipPath
       clipPathUnits="userSpaceOnUse"
       id="clipPath80"><path
         d="M 54,36 H 388.8 V 259.2 H 54 Z"
         id="path78" /></clipPath><clipPath
       clipPathUnits="userSpaceOnUse"
       id="clipPath90"><path
         d="m -1.75,-1.75 h 3.5 v 3.5 h -3.5 z"
         id="path88" /></clipPath><clipPath
       clipPathUnits="userSpaceOnUse"
       id="clipPath100"><path
         d="M 54,36 H 388.8 V 259.2 H 54 Z"
         id="path98" /></clipPath><clipPath
       clipPathUnits="userSpaceOnUse"
       id="clipPath110"><path
         d="M 54,36 H 388.8 V 259.2 H 54 Z"
         id="path108" /></clipPath><clipPath
       clipPathUnits="userSpaceOnUse"
       id="clipPath120"><path
         d="m -1.75,-1.75 h 3.5 v 3.5 h -3.5 z"
         id="path118" /></clipPath><clipPath
       clipPathUnits="userSpaceOnUse"
       id="clipPath130"><path
         d="M 54,36 H 388.8 V 259.2 H 54 Z"
         id="path128" /></clipPath><clipPath
       clipPathUnits="userSpaceOnUse"
       id="clipPath140"><path
         d="M 54,36 H 388.8 V 259.2 H 54 Z"
         id="path138" /></clipPath><clipPath
       clipPathUnits="userSpaceOnUse"
       id="clipPath150"><path
         d="m -1.75,-1.75 h 3.5 v 3.5 h -3.5 z"
         id="path148" /></clipPath><clipPath
       clipPathUnits="userSpaceOnUse"
       id="clipPath160"><path
         d="M 54,36 H 388.8 V 259.2 H 54 Z"
         id="path158" /></clipPath><clipPath
       clipPathUnits="userSpaceOnUse"
       id="clipPath170"><path
         d="M 54,36 H 388.8 V 259.2 H 54 Z"
         id="path168" /></clipPath><clipPath
       clipPathUnits="userSpaceOnUse"
       id="clipPath180"><path
         d="m -1.75,-1.75 h 3.5 v 3.5 h -3.5 z"
         id="path178" /></clipPath><clipPath
       clipPathUnits="userSpaceOnUse"
       id="clipPath190"><path
         d="M 54,36 H 388.8 V 259.2 H 54 Z"
         id="path188" /></clipPath><clipPath
       clipPathUnits="userSpaceOnUse"
       id="clipPath200"><path
         d="M 54,36 H 388.8 V 259.2 H 54 Z"
         id="path198" /></clipPath><clipPath
       clipPathUnits="userSpaceOnUse"
       id="clipPath210"><path
         d="m -1.75,-1.75 h 3.5 v 3.5 h -3.5 z"
         id="path208" /></clipPath><clipPath
       clipPathUnits="userSpaceOnUse"
       id="clipPath220"><path
         d="M 54,36 H 388.8 V 259.2 H 54 Z"
         id="path218" /></clipPath><clipPath
       clipPathUnits="userSpaceOnUse"
       id="clipPath230"><path
         d="M 54,36 H 388.8 V 259.2 H 54 Z"
         id="path228" /></clipPath><clipPath
       clipPathUnits="userSpaceOnUse"
       id="clipPath240"><path
         d="m -1.75,-1.75 h 3.5 v 3.5 h -3.5 z"
         id="path238" /></clipPath><clipPath
       clipPathUnits="userSpaceOnUse"
       id="clipPath250"><path
         d="M 54,36 H 388.8 V 259.2 H 54 Z"
         id="path248" /></clipPath><clipPath
       clipPathUnits="userSpaceOnUse"
       id="clipPath260"><path
         d="M 54,36 H 388.8 V 259.2 H 54 Z"
         id="path258" /></clipPath><clipPath
       clipPathUnits="userSpaceOnUse"
       id="clipPath270"><path
         d="m -1.75,-1.75 h 3.5 v 3.5 h -3.5 z"
         id="path268" /></clipPath><clipPath
       clipPathUnits="userSpaceOnUse"
       id="clipPath280"><path
         d="M 54,36 H 388.8 V 259.2 H 54 Z"
         id="path278" /></clipPath><clipPath
       clipPathUnits="userSpaceOnUse"
       id="clipPath290"><path
         d="M 54,36 H 388.8 V 259.2 H 54 Z"
         id="path288" /></clipPath><clipPath
       clipPathUnits="userSpaceOnUse"
       id="clipPath300"><path
         d="m -1.75,-1.75 h 3.5 v 3.5 h -3.5 z"
         id="path298" /></clipPath><clipPath
       clipPathUnits="userSpaceOnUse"
       id="clipPath310"><path
         d="M 54,36 H 388.8 V 259.2 H 54 Z"
         id="path308" /></clipPath><clipPath
       clipPathUnits="userSpaceOnUse"
       id="clipPath320"><path
         d="M 54,36 H 388.8 V 259.2 H 54 Z"
         id="path318" /></clipPath><clipPath
       clipPathUnits="userSpaceOnUse"
       id="clipPath330"><path
         d="m -1.75,-1.75 h 3.5 v 3.5 h -3.5 z"
         id="path328" /></clipPath><clipPath
       clipPathUnits="userSpaceOnUse"
       id="clipPath340"><path
         d="M 54,36 H 388.8 V 259.2 H 54 Z"
         id="path338" /></clipPath><clipPath
       clipPathUnits="userSpaceOnUse"
       id="clipPath350"><path
         d="M 54,36 H 388.8 V 259.2 H 54 Z"
         id="path348" /></clipPath><clipPath
       clipPathUnits="userSpaceOnUse"
       id="clipPath360"><path
         d="M 54,36 H 388.8 V 259.2 H 54 Z"
         id="path358" /></clipPath><clipPath
       clipPathUnits="userSpaceOnUse"
       id="clipPath370"><path
         d="M 54,36 H 388.8 V 259.2 H 54 Z"
         id="path368" /></clipPath><clipPath
       clipPathUnits="userSpaceOnUse"
       id="clipPath380"><path
         d="M 54,36 H 388.8 V 259.2 H 54 Z"
         id="path378" /></clipPath><clipPath
       clipPathUnits="userSpaceOnUse"
       id="clipPath400"><path
         d="M 54,36 H 388.8 V 259.2 H 54 Z"
         id="path398" /></clipPath><clipPath
       clipPathUnits="userSpaceOnUse"
       id="clipPath420"><path
         d="M 54,36 H 388.8 V 259.2 H 54 Z"
         id="path418" /></clipPath><clipPath
       clipPathUnits="userSpaceOnUse"
       id="clipPath440"><path
         d="M 54,36 H 388.8 V 259.2 H 54 Z"
         id="path438" /></clipPath><clipPath
       clipPathUnits="userSpaceOnUse"
       id="clipPath460"><path
         d="M 54,36 H 388.8 V 259.2 H 54 Z"
         id="path458" /></clipPath><clipPath
       clipPathUnits="userSpaceOnUse"
       id="clipPath490"><path
         d="M 54,36 H 388.8 V 259.2 H 54 Z"
         id="path488" /></clipPath><clipPath
       clipPathUnits="userSpaceOnUse"
       id="clipPath510"><path
         d="M 54,36 H 388.8 V 259.2 H 54 Z"
         id="path508" /></clipPath><clipPath
       clipPathUnits="userSpaceOnUse"
       id="clipPath530"><path
         d="M 54,36 H 388.8 V 259.2 H 54 Z"
         id="path528" /></clipPath><clipPath
       clipPathUnits="userSpaceOnUse"
       id="clipPath550"><path
         d="M 54,36 H 388.8 V 259.2 H 54 Z"
         id="path548" /></clipPath><clipPath
       clipPathUnits="userSpaceOnUse"
       id="clipPath570"><path
         d="M 54,36 H 388.8 V 259.2 H 54 Z"
         id="path568" /></clipPath><clipPath
       clipPathUnits="userSpaceOnUse"
       id="clipPath590"><path
         d="M 54,36 H 388.8 V 259.2 H 54 Z"
         id="path588" /></clipPath><clipPath
       clipPathUnits="userSpaceOnUse"
       id="clipPath610"><path
         d="M 54,36 H 388.8 V 259.2 H 54 Z"
         id="path608" /></clipPath></defs><sodipodi:namedview
     id="namedview4"
     pagecolor="#ffffff"
     bordercolor="#666666"
     borderopacity="1.0"
     inkscape:pageshadow="2"
     inkscape:pageopacity="0.0"
     inkscape:pagecheckerboard="0"
     showgrid="false"
     inkscape:zoom="2.09375"
     inkscape:cx="288.23881"
     inkscape:cy="192"
     inkscape:window-width="1920"
     inkscape:window-height="1009"
     inkscape:window-x="-8"
     inkscape:window-y="-8"
     inkscape:window-maximized="1"
     inkscape:current-layer="g8" /><g
     id="g8"
     inkscape:groupmode="layer"
     inkscape:label="Example-output-file"
     transform="matrix(1.3333333,0,0,-1.3333333,0,384)"><path
       d="M 0,0 H 432 V 288 H 0 Z"
       style="fill:#ffffff;fill-opacity:1;fill-rule:nonzero;stroke:none"
       id="path10" /><path
       d="M 54,36 H 388.8 V 259.2 H 54 Z"
       style="fill:#ffffff;fill-opacity:1;fill-rule:nonzero;stroke:none"
       id="path12" /><g
       id="g14"><g
         id="g16"
         clip-path="url(#clipPath20)"><path
           d="m 309.41952,241.47978 6,6 m -6,0 6,-6"
           style="fill:#000000;fill-opacity:1;fill-rule:nonzero;stroke:#000000;stroke-width:0.5;stroke-linecap:butt;stroke-linejoin:round;stroke-miterlimit:10;stroke-dasharray:none;stroke-opacity:1"
           id="path22" /></g></g><g
       id="g24"><g
         id="g26"
         clip-path="url(#clipPath30)"><path
           d="m 258.6,66.436364 -11.16,3.763007 -11.16,4.578398 -11.16,5.461964 -11.16,6.437252 -11.16,7.537828 -11.16,8.814247 -11.16,10.34785 -11.16,12.28146 -11.16,14.89836 -11.16,18.87963"
           style="fill:none;stroke:#000000;stroke-width:0.3;stroke-linecap:square;stroke-linejoin:round;stroke-miterlimit:10;stroke-dasharray:none;stroke-opacity:1"
           id="path32" /></g></g><g
       id="g34"><g
         id="g36"
         clip-path="url(#clipPath40)"><path
           d="m 147,159.43636 v 0 l 5.58,-9.43981 5.58,-9.43982 v 18.87963 H 147"
           style="fill:none;stroke:#000000;stroke-width:0.5;stroke-linecap:square;stroke-linejoin:round;stroke-miterlimit:10;stroke-dasharray:none;stroke-opacity:1"
           id="path42" /></g></g><g
       id="g44"><g
         id="g46"
         clip-path="url(#clipPath50)"><g
           id="g52"
           transform="translate(152.58,149.99655)"><g
             id="g54"><g
               id="g56"
               clip-path="url(#clipPath60)"><path
                 d="m 0,-1.5 c 0.39780465,0 0.77936981,0.1580495 1.0606602,0.4393398 C 1.3419505,-0.77936981 1.5,-0.39780465 1.5,0 1.5,0.39780465 1.3419505,0.77936981 1.0606602,1.0606602 0.77936981,1.3419505 0.39780465,1.5 0,1.5 -0.39780465,1.5 -0.77936981,1.3419505 -1.0606602,1.0606602 -1.3419505,0.77936981 -1.5,0.39780465 -1.5,0 c 0,-0.39780465 0.1580495,-0.77936981 0.4393398,-1.0606602 C -0.77936981,-1.3419505 -0.39780465,-1.5 0,-1.5 Z"
                 style="fill:#000000;fill-opacity:1;fill-rule:nonzero;stroke:#000000;stroke-width:0.5;stroke-linecap:butt;stroke-linejoin:round;stroke-miterlimit:10;stroke-dasharray:none;stroke-opacity:1"
                 id="path62" /></g></g></g></g></g><g
       id="g64"><g
         id="g66"
         clip-path="url(#clipPath70)"><path
           d="m 158.16,159.43636 v -18.87963 l 5.58,-7.44918 5.58,-7.44918 v 30.05799 l -3.72,3.72 h -7.44"
           style="fill:none;stroke:#000000;stroke-width:0.5;stroke-linecap:square;stroke-linejoin:round;stroke-miterlimit:10;stroke-dasharray:none;stroke-opacity:1"
           id="path72" /></g></g><g
       id="g74"><g
         id="g76"
         clip-path="url(#clipPath80)"><g
           id="g82"
           transform="translate(163.74,133.10755)"><g
             id="g84"><g
               id="g86"
               clip-path="url(#clipPath90)"><path
                 d="m 0,-1.5 c 0.39780465,0 0.77936981,0.1580495 1.0606602,0.4393398 C 1.3419505,-0.77936981 1.5,-0.39780465 1.5,0 1.5,0.39780465 1.3419505,0.77936981 1.0606602,1.0606602 0.77936981,1.3419505 0.39780465,1.5 0,1.5 -0.39780465,1.5 -0.77936981,1.3419505 -1.0606602,1.0606602 -1.3419505,0.77936981 -1.5,0.39780465 -1.5,0 c 0,-0.39780465 0.1580495,-0.77936981 0.4393398,-1.0606602 C -0.77936981,-1.3419505 -0.39780465,-1.5 0,-1.5 Z"
                 style="fill:#000000;fill-opacity:1;fill-rule:nonzero;stroke:#000000;stroke-width:0.5;stroke-linecap:butt;stroke-linejoin:round;stroke-miterlimit:10;stroke-dasharray:none;stroke-opacity:1"
                 id="path92" /></g></g></g></g></g><g
       id="g94"><g
         id="g96"
         clip-path="url(#clipPath100)"><path
           d="m 169.32,155.71636 v -30.05799 l 5.58,-6.14073 5.58,-6.14073 v 31.17945 l -11.16,11.16"
           style="fill:none;stroke:#000000;stroke-width:0.5;stroke-linecap:square;stroke-linejoin:round;stroke-miterlimit:10;stroke-dasharray:none;stroke-opacity:1"
           id="path102" /></g></g><g
       id="g104"><g
         id="g106"
         clip-path="url(#clipPath110)"><g
           id="g112"
           transform="translate(174.9,119.51764)"><g
             id="g114"><g
               id="g116"
               clip-path="url(#clipPath120)"><path
                 d="m 0,-1.5 c 0.39780465,0 0.77936981,0.1580495 1.0606602,0.4393398 C 1.3419505,-0.77936981 1.5,-0.39780465 1.5,0 1.5,0.39780465 1.3419505,0.77936981 1.0606602,1.0606602 0.77936981,1.3419505 0.39780465,1.5 0,1.5 -0.39780465,1.5 -0.77936981,1.3419505 -1.0606602,1.0606602 -1.3419505,0.77936981 -1.5,0.39780465 -1.5,0 c 0,-0.39780465 0.1580495,-0.77936981 0.4393398,-1.0606602 C -0.77936981,-1.3419505 -0.39780465,-1.5 0,-1.5 Z"
                 style="fill:#000000;fill-opacity:1;fill-rule:nonzero;stroke:#000000;stroke-width:0.5;stroke-linecap:butt;stroke-linejoin:round;stroke-miterlimit:10;stroke-dasharray:none;stroke-opacity:1"
                 id="path122" /></g></g></g></g></g><g
       id="g124"><g
         id="g126"
         clip-path="url(#clipPath130)"><path
           d="m 180.48,144.55636 v -31.17945 l 5.58,-5.17393 5.58,-5.17392 v 30.3673 l -11.16,11.16"
           style="fill:none;stroke:#000000;stroke-width:0.5;stroke-linecap:square;stroke-linejoin:round;stroke-miterlimit:10;stroke-dasharray:none;stroke-opacity:1"
           id="path132" /></g></g><g
       id="g134"><g
         id="g136"
         clip-path="url(#clipPath140)"><g
           id="g142"
           transform="translate(186.06,108.20298)"><g
             id="g144"><g
               id="g146"
               clip-path="url(#clipPath150)"><path
                 d="m 0,-1.5 c 0.39780465,0 0.77936981,0.1580495 1.0606602,0.4393398 C 1.3419505,-0.77936981 1.5,-0.39780465 1.5,0 1.5,0.39780465 1.3419505,0.77936981 1.0606602,1.0606602 0.77936981,1.3419505 0.39780465,1.5 0,1.5 -0.39780465,1.5 -0.77936981,1.3419505 -1.0606602,1.0606602 -1.3419505,0.77936981 -1.5,0.39780465 -1.5,0 c 0,-0.39780465 0.1580495,-0.77936981 0.4393398,-1.0606602 C -0.77936981,-1.3419505 -0.39780465,-1.5 0,-1.5 Z"
                 style="fill:#000000;fill-opacity:1;fill-rule:nonzero;stroke:#000000;stroke-width:0.5;stroke-linecap:butt;stroke-linejoin:round;stroke-miterlimit:10;stroke-dasharray:none;stroke-opacity:1"
                 id="path152" /></g></g></g></g></g><g
       id="g154"><g
         id="g156"
         clip-path="url(#clipPath160)"><path
           d="m 191.64,133.39636 v -30.3673 l 5.58,-4.407125 5.58,-4.407122 v 28.021547 l -11.16,11.16"
           style="fill:none;stroke:#000000;stroke-width:0.5;stroke-linecap:square;stroke-linejoin:round;stroke-miterlimit:10;stroke-dasharray:none;stroke-opacity:1"
           id="path162" /></g></g><g
       id="g164"><g
         id="g166"
         clip-path="url(#clipPath170)"><g
           id="g172"
           transform="translate(197.22,98.621935)"><g
             id="g174"><g
               id="g176"
               clip-path="url(#clipPath180)"><path
                 d="m 0,-1.5 c 0.39780465,0 0.77936981,0.1580495 1.0606602,0.4393398 C 1.3419505,-0.77936981 1.5,-0.39780465 1.5,0 1.5,0.39780465 1.3419505,0.77936981 1.0606602,1.0606602 0.77936981,1.3419505 0.39780465,1.5 0,1.5 -0.39780465,1.5 -0.77936981,1.3419505 -1.0606602,1.0606602 -1.3419505,0.77936981 -1.5,0.39780465 -1.5,0 c 0,-0.39780465 0.1580495,-0.77936981 0.4393398,-1.0606602 C -0.77936981,-1.3419505 -0.39780465,-1.5 0,-1.5 Z"
                 style="fill:#000000;fill-opacity:1;fill-rule:nonzero;stroke:#000000;stroke-width:0.5;stroke-linecap:butt;stroke-linejoin:round;stroke-miterlimit:10;stroke-dasharray:none;stroke-opacity:1"
                 id="path182" /></g></g></g></g></g><g
       id="g184"><g
         id="g186"
         clip-path="url(#clipPath190)"><path
           d="M 202.8,122.23636 V 94.214813 l 5.58,-3.768914 5.58,-3.768914 v 24.399375 l -11.16,11.16"
           style="fill:none;stroke:#000000;stroke-width:0.5;stroke-linecap:square;stroke-linejoin:round;stroke-miterlimit:10;stroke-dasharray:none;stroke-opacity:1"
           id="path192" /></g></g><g
       id="g194"><g
         id="g196"
         clip-path="url(#clipPath200)"><g
           id="g202"
           transform="translate(208.38,90.445899)"><g
             id="g204"><g
               id="g206"
               clip-path="url(#clipPath210)"><path
                 d="m 0,-1.5 c 0.39780465,0 0.77936981,0.1580495 1.0606602,0.4393398 C 1.3419505,-0.77936981 1.5,-0.39780465 1.5,0 1.5,0.39780465 1.3419505,0.77936981 1.0606602,1.0606602 0.77936981,1.3419505 0.39780465,1.5 0,1.5 -0.39780465,1.5 -0.77936981,1.3419505 -1.0606602,1.0606602 -1.3419505,0.77936981 -1.5,0.39780465 -1.5,0 c 0,-0.39780465 0.1580495,-0.77936981 0.4393398,-1.0606602 C -0.77936981,-1.3419505 -0.39780465,-1.5 0,-1.5 Z"
                 style="fill:#000000;fill-opacity:1;fill-rule:nonzero;stroke:#000000;stroke-width:0.5;stroke-linecap:butt;stroke-linejoin:round;stroke-miterlimit:10;stroke-dasharray:none;stroke-opacity:1"
                 id="path212" /></g></g></g></g></g><g
       id="g214"><g
         id="g216"
         clip-path="url(#clipPath220)"><path
           d="M 213.96,111.07636 V 86.676985 l 5.58,-3.218626 5.58,-3.218626 v 19.676631 l -11.16,11.159996"
           style="fill:none;stroke:#000000;stroke-width:0.5;stroke-linecap:square;stroke-linejoin:round;stroke-miterlimit:10;stroke-dasharray:none;stroke-opacity:1"
           id="path222" /></g></g><g
       id="g224"><g
         id="g226"
         clip-path="url(#clipPath230)"><g
           id="g232"
           transform="translate(219.54,83.458359)"><g
             id="g234"><g
               id="g236"
               clip-path="url(#clipPath240)"><path
                 d="m 0,-1.5 c 0.39780465,0 0.77936981,0.1580495 1.0606602,0.4393398 C 1.3419505,-0.77936981 1.5,-0.39780465 1.5,0 1.5,0.39780465 1.3419505,0.77936981 1.0606602,1.0606602 0.77936981,1.3419505 0.39780465,1.5 0,1.5 -0.39780465,1.5 -0.77936981,1.3419505 -1.0606602,1.0606602 -1.3419505,0.77936981 -1.5,0.39780465 -1.5,0 c 0,-0.39780465 0.1580495,-0.77936981 0.4393398,-1.0606602 C -0.77936981,-1.3419505 -0.39780465,-1.5 0,-1.5 Z"
                 style="fill:#000000;fill-opacity:1;fill-rule:nonzero;stroke:#000000;stroke-width:0.5;stroke-linecap:butt;stroke-linejoin:round;stroke-miterlimit:10;stroke-dasharray:none;stroke-opacity:1"
                 id="path242" /></g></g></g></g></g><g
       id="g244"><g
         id="g246"
         clip-path="url(#clipPath250)"><path
           d="M 225.12,99.916364 V 80.239733 l 5.58,-2.730982 5.58,-2.730982 v 13.978595 l -11.16,11.16"
           style="fill:none;stroke:#000000;stroke-width:0.5;stroke-linecap:square;stroke-linejoin:round;stroke-miterlimit:10;stroke-dasharray:none;stroke-opacity:1"
           id="path252" /></g></g><g
       id="g254"><g
         id="g256"
         clip-path="url(#clipPath260)"><g
           id="g262"
           transform="translate(230.7,77.508751)"><g
             id="g264"><g
               id="g266"
               clip-path="url(#clipPath270)"><path
                 d="m 0,-1.5 c 0.39780465,0 0.77936981,0.1580495 1.0606602,0.4393398 C 1.3419505,-0.77936981 1.5,-0.39780465 1.5,0 1.5,0.39780465 1.3419505,0.77936981 1.0606602,1.0606602 0.77936981,1.3419505 0.39780465,1.5 0,1.5 -0.39780465,1.5 -0.77936981,1.3419505 -1.0606602,1.0606602 -1.3419505,0.77936981 -1.5,0.39780465 -1.5,0 c 0,-0.39780465 0.1580495,-0.77936981 0.4393398,-1.0606602 C -0.77936981,-1.3419505 -0.39780465,-1.5 0,-1.5 Z"
                 style="fill:#000000;fill-opacity:1;fill-rule:nonzero;stroke:#000000;stroke-width:0.5;stroke-linecap:butt;stroke-linejoin:round;stroke-miterlimit:10;stroke-dasharray:none;stroke-opacity:1"
                 id="path272" /></g></g></g></g></g><g
       id="g274"><g
         id="g276"
         clip-path="url(#clipPath280)"><path
           d="M 236.28,88.756364 V 74.777769 l 5.58,-2.289199 5.58,-2.289199 v 7.396993 l -11.16,11.16"
           style="fill:none;stroke:#000000;stroke-width:0.5;stroke-linecap:square;stroke-linejoin:round;stroke-miterlimit:10;stroke-dasharray:none;stroke-opacity:1"
           id="path282" /></g></g><g
       id="g284"><g
         id="g286"
         clip-path="url(#clipPath290)"><g
           id="g292"
           transform="translate(241.86,72.48857)"><g
             id="g294"><g
               id="g296"
               clip-path="url(#clipPath300)"><path
                 d="m 0,-1.5 c 0.39780465,0 0.77936981,0.1580495 1.0606602,0.4393398 C 1.3419505,-0.77936981 1.5,-0.39780465 1.5,0 1.5,0.39780465 1.3419505,0.77936981 1.0606602,1.0606602 0.77936981,1.3419505 0.39780465,1.5 0,1.5 -0.39780465,1.5 -0.77936981,1.3419505 -1.0606602,1.0606602 -1.3419505,0.77936981 -1.5,0.39780465 -1.5,0 c 0,-0.39780465 0.1580495,-0.77936981 0.4393398,-1.0606602 C -0.77936981,-1.3419505 -0.39780465,-1.5 0,-1.5 Z"
                 style="fill:#000000;fill-opacity:1;fill-rule:nonzero;stroke:#000000;stroke-width:0.5;stroke-linecap:butt;stroke-linejoin:round;stroke-miterlimit:10;stroke-dasharray:none;stroke-opacity:1"
                 id="path302" /></g></g></g></g></g><g
       id="g304"><g
         id="g306"
         clip-path="url(#clipPath310)"><path
           d="m 247.44,77.596364 v -7.396993 l 5.58,-1.881504 5.58,-1.881503 v 0 l -11.16,11.16"
           style="fill:none;stroke:#000000;stroke-width:0.5;stroke-linecap:square;stroke-linejoin:round;stroke-miterlimit:10;stroke-dasharray:none;stroke-opacity:1"
           id="path312" /></g></g><g
       id="g314"><g
         id="g316"
         clip-path="url(#clipPath320)"><g
           id="g322"
           transform="translate(253.02,68.317867)"><g
             id="g324"><g
               id="g326"
               clip-path="url(#clipPath330)"><path
                 d="m 0,-1.5 c 0.39780465,0 0.77936981,0.1580495 1.0606602,0.4393398 C 1.3419505,-0.77936981 1.5,-0.39780465 1.5,0 1.5,0.39780465 1.3419505,0.77936981 1.0606602,1.0606602 0.77936981,1.3419505 0.39780465,1.5 0,1.5 -0.39780465,1.5 -0.77936981,1.3419505 -1.0606602,1.0606602 -1.3419505,0.77936981 -1.5,0.39780465 -1.5,0 c 0,-0.39780465 0.1580495,-0.77936981 0.4393398,-1.0606602 C -0.77936981,-1.3419505 -0.39780465,-1.5 0,-1.5 Z"
                 style="fill:#000000;fill-opacity:1;fill-rule:nonzero;stroke:#000000;stroke-width:0.5;stroke-linecap:butt;stroke-linejoin:round;stroke-miterlimit:10;stroke-dasharray:none;stroke-opacity:1"
                 id="path332" /></g></g></g></g></g><g
       id="g334"><g
         id="g336"
         clip-path="url(#clipPath340)"><path
           d="m 109.8,36 h 204.6 v 30.436364 h -55.8 l -93,92.999996 H 109.8 L 109.8,36"
           style="fill:none;stroke:#000000;stroke-width:1;stroke-linecap:square;stroke-linejoin:round;stroke-miterlimit:10;stroke-dasharray:none;stroke-opacity:1"
           id="path342" /></g></g><g
       id="g344"><g
         id="g346"
         clip-path="url(#clipPath350)"><path
           d="m 109.8,159.43636 h 55.8 l 93,-92.999996 h 55.8"
           style="fill:none;stroke:#000000;stroke-width:2;stroke-linecap:square;stroke-linejoin:round;stroke-miterlimit:10;stroke-dasharray:none;stroke-opacity:1"
           id="path352" /></g></g><g
       id="g354"><g
         id="g356"
         clip-path="url(#clipPath360)"><path
           d="m 109.8,122.23636 h 93 l 55.8,-55.799996 h 55.8"
           style="fill:none;stroke:#0000ff;stroke-width:1;stroke-linecap:square;stroke-linejoin:round;stroke-miterlimit:10;stroke-dasharray:none;stroke-opacity:1"
           id="path362" /></g></g><g
       id="g364"><g
         id="g366"
         clip-path="url(#clipPath370)"><path
           d="M 312.41952,244.47978 258.6,66.436364"
           style="fill:none;stroke:#000000;stroke-width:0.5;stroke-linecap:butt;stroke-linejoin:round;stroke-miterlimit:10;stroke-dasharray:6, 6;stroke-dashoffset:0;stroke-opacity:1"
           id="path372" /></g></g><g
       id="g374"><g
         id="g376"
         clip-path="url(#clipPath380)"><path
           d="M 312.41952,244.47978 147,159.43636"
           style="fill:none;stroke:#000000;stroke-width:0.5;stroke-linecap:butt;stroke-linejoin:round;stroke-miterlimit:10;stroke-dasharray:6, 6;stroke-dashoffset:0;stroke-opacity:1"
           id="path382" /></g></g><g
       id="g384"><path
         d="M 388.8,36 V 259.2"
         style="fill:none;stroke:#000000;stroke-width:1;stroke-linecap:square;stroke-linejoin:miter;stroke-miterlimit:10;stroke-dasharray:none;stroke-opacity:1"
         id="path386" /><path
         d="M 54,36 H 388.8"
         style="fill:none;stroke:#000000;stroke-width:1;stroke-linecap:square;stroke-linejoin:miter;stroke-miterlimit:10;stroke-dasharray:none;stroke-opacity:1"
         id="path388" /><path
         d="M 54,36 V 259.2"
         style="fill:none;stroke:#000000;stroke-width:1;stroke-linecap:square;stroke-linejoin:miter;stroke-miterlimit:10;stroke-dasharray:none;stroke-opacity:1"
         id="path390" /><path
         d="M 54,259.2 H 388.8"
         style="fill:none;stroke:#000000;stroke-width:1;stroke-linecap:square;stroke-linejoin:miter;stroke-miterlimit:10;stroke-dasharray:none;stroke-opacity:1"
         id="path392" /></g><g
       id="g394"><g
         id="g396"
         clip-path="url(#clipPath400)"><path
           d="M 109.8,36 V 259.2"
           style="fill:none;stroke:#000000;stroke-width:0.5;stroke-linecap:butt;stroke-linejoin:round;stroke-miterlimit:10;stroke-dasharray:1, 3;stroke-dashoffset:0;stroke-opacity:1"
           id="path402" /></g></g><g
       id="g404"><path
         d="m 109.8,36 v 4"
         style="fill:#000000;fill-opacity:1;fill-rule:nonzero;stroke:#000000;stroke-width:0.5;stroke-linecap:butt;stroke-linejoin:round;stroke-miterlimit:10;stroke-dasharray:none;stroke-opacity:1"
         id="path406" /><path
         d="m 109.8,259.2 v -4"
         style="fill:#000000;fill-opacity:1;fill-rule:nonzero;stroke:#000000;stroke-width:0.5;stroke-linecap:butt;stroke-linejoin:round;stroke-miterlimit:10;stroke-dasharray:none;stroke-opacity:1"
         id="path408" /><text
         transform="matrix(1,0,0,-1,107.27656,24.40625)"
         style="font-variant:normal;font-weight:normal;font-size:10px;font-family:DejaVuSans;-inkscape-font-specification:DejaVuSans;writing-mode:lr-tb;fill:#000000;fill-opacity:1;fill-rule:nonzero;stroke:none"
         id="text412"><tspan
           x="0"
           y="0"
           id="tspan410">0</tspan></text></g><g
       id="g414"><g
         id="g416"
         clip-path="url(#clipPath420)"><path
           d="M 202.8,36 V 259.2"
           style="fill:none;stroke:#000000;stroke-width:0.5;stroke-linecap:butt;stroke-linejoin:round;stroke-miterlimit:10;stroke-dasharray:1, 3;stroke-dashoffset:0;stroke-opacity:1"
           id="path422" /></g></g><g
       id="g424"><path
         d="m 202.8,36 v 4"
         style="fill:#000000;fill-opacity:1;fill-rule:nonzero;stroke:#000000;stroke-width:0.5;stroke-linecap:butt;stroke-linejoin:round;stroke-miterlimit:10;stroke-dasharray:none;stroke-opacity:1"
         id="path426" /><path
         d="m 202.8,259.2 v -4"
         style="fill:#000000;fill-opacity:1;fill-rule:nonzero;stroke:#000000;stroke-width:0.5;stroke-linecap:butt;stroke-linejoin:round;stroke-miterlimit:10;stroke-dasharray:none;stroke-opacity:1"
         id="path428" /><text
         transform="matrix(1,0,0,-1,200.44062,24.40625)"
         style="font-variant:normal;font-weight:normal;font-size:10px;font-family:DejaVuSans;-inkscape-font-specification:DejaVuSans;writing-mode:lr-tb;fill:#000000;fill-opacity:1;fill-rule:nonzero;stroke:none"
         id="text432"><tspan
           x="0"
           y="0"
           id="tspan430">5</tspan></text></g><g
       id="g434"><g
         id="g436"
         clip-path="url(#clipPath440)"><path
           d="M 295.8,36 V 259.2"
           style="fill:none;stroke:#000000;stroke-width:0.5;stroke-linecap:butt;stroke-linejoin:round;stroke-miterlimit:10;stroke-dasharray:1, 3;stroke-dashoffset:0;stroke-opacity:1"
           id="path442" /></g></g><g
       id="g444"><path
         d="m 295.8,36 v 4"
         style="fill:#000000;fill-opacity:1;fill-rule:nonzero;stroke:#000000;stroke-width:0.5;stroke-linecap:butt;stroke-linejoin:round;stroke-miterlimit:10;stroke-dasharray:none;stroke-opacity:1"
         id="path446" /><path
         d="m 295.8,259.2 v -4"
         style="fill:#000000;fill-opacity:1;fill-rule:nonzero;stroke:#000000;stroke-width:0.5;stroke-linecap:butt;stroke-linejoin:round;stroke-miterlimit:10;stroke-dasharray:none;stroke-opacity:1"
         id="path448" /><text
         transform="matrix(1,0,0,-1,290.31562,24.40625)"
         style="font-variant:normal;font-weight:normal;font-size:10px;font-family:DejaVuSans;-inkscape-font-specification:DejaVuSans;writing-mode:lr-tb;fill:#000000;fill-opacity:1;fill-rule:nonzero;stroke:none"
         id="text452"><tspan
           x="0 6.3600001"
           y="0"
           sodipodi:role="line"
           id="tspan450">10</tspan></text></g><g
       id="g454"><g
         id="g456"
         clip-path="url(#clipPath460)"><path
           d="M 388.8,36 V 259.2"
           style="fill:none;stroke:#000000;stroke-width:0.5;stroke-linecap:butt;stroke-linejoin:round;stroke-miterlimit:10;stroke-dasharray:1, 3;stroke-dashoffset:0;stroke-opacity:1"
           id="path462" /></g></g><g
       id="g464"><path
         d="m 388.8,36 v 4"
         style="fill:#000000;fill-opacity:1;fill-rule:nonzero;stroke:#000000;stroke-width:0.5;stroke-linecap:butt;stroke-linejoin:round;stroke-miterlimit:10;stroke-dasharray:none;stroke-opacity:1"
         id="path466" /><path
         d="m 388.8,259.2 v -4"
         style="fill:#000000;fill-opacity:1;fill-rule:nonzero;stroke:#000000;stroke-width:0.5;stroke-linecap:butt;stroke-linejoin:round;stroke-miterlimit:10;stroke-dasharray:none;stroke-opacity:1"
         id="path468" /><text
         transform="matrix(1,0,0,-1,383.425,24.40625)"
         style="font-variant:normal;font-weight:normal;font-size:10px;font-family:DejaVuSans;-inkscape-font-specification:DejaVuSans;writing-mode:lr-tb;fill:#000000;fill-opacity:1;fill-rule:nonzero;stroke:none"
         id="text472"><tspan
           x="0 6.3600001"
           y="0"
           sodipodi:role="line"
           id="tspan470">15</tspan></text><g
         id="g474"
         transform="translate(195.4,9.734375)"><text
           transform="matrix(1,0,0,-1,0,0.40625)"
           style="font-variant:normal;font-weight:normal;font-size:10px;font-family:Cmmi10;-inkscape-font-specification:Cmmi10;writing-mode:lr-tb;fill:#000000;fill-opacity:1;fill-rule:nonzero;stroke:none"
           id="text478"><tspan
             x="0"
             y="0"
             id="tspan476">x</tspan></text><text
           transform="matrix(1,0,0,-1,8.8867188,0.40625)"
           style="font-variant:normal;font-weight:normal;font-size:10px;font-family:DejaVuSans;-inkscape-font-specification:DejaVuSans;writing-mode:lr-tb;fill:#000000;fill-opacity:1;fill-rule:nonzero;stroke:none"
           id="text482"><tspan
             x="0 6.3476562 9.1259766 14.335938 18.256836 24.384766 30.722656 36.220703"
             y="0"
             sodipodi:role="line"
             id="tspan480">distance</tspan></text></g></g><g
       id="g484"><g
         id="g486"
         clip-path="url(#clipPath490)"><path
           d="M 54,36 H 388.8"
           style="fill:none;stroke:#000000;stroke-width:0.5;stroke-linecap:butt;stroke-linejoin:round;stroke-miterlimit:10;stroke-dasharray:1, 3;stroke-dashoffset:0;stroke-opacity:1"
           id="path492" /></g></g><g
       id="g494"><path
         d="m 54,36 h 4"
         style="fill:#000000;fill-opacity:1;fill-rule:nonzero;stroke:#000000;stroke-width:0.5;stroke-linecap:butt;stroke-linejoin:round;stroke-miterlimit:10;stroke-dasharray:none;stroke-opacity:1"
         id="path496" /><path
         d="m 388.8,36 h -4"
         style="fill:#000000;fill-opacity:1;fill-rule:nonzero;stroke:#000000;stroke-width:0.5;stroke-linecap:butt;stroke-linejoin:round;stroke-miterlimit:10;stroke-dasharray:none;stroke-opacity:1"
         id="path498" /><text
         transform="matrix(1,0,0,-1,44.953125,33.242187)"
         style="font-variant:normal;font-weight:normal;font-size:10px;font-family:DejaVuSans;-inkscape-font-specification:DejaVuSans;writing-mode:lr-tb;fill:#000000;fill-opacity:1;fill-rule:nonzero;stroke:none"
         id="text502"><tspan
           x="0"
           y="0"
           id="tspan500">0</tspan></text></g><g
       id="g504"><g
         id="g506"
         clip-path="url(#clipPath510)"><path
           d="M 54,73.2 H 388.8"
           style="fill:none;stroke:#000000;stroke-width:0.5;stroke-linecap:butt;stroke-linejoin:round;stroke-miterlimit:10;stroke-dasharray:1, 3;stroke-dashoffset:0;stroke-opacity:1"
           id="path512" /></g></g><g
       id="g514"><path
         d="m 54,73.2 h 4"
         style="fill:#000000;fill-opacity:1;fill-rule:nonzero;stroke:#000000;stroke-width:0.5;stroke-linecap:butt;stroke-linejoin:round;stroke-miterlimit:10;stroke-dasharray:none;stroke-opacity:1"
         id="path516" /><path
         d="m 388.8,73.2 h -4"
         style="fill:#000000;fill-opacity:1;fill-rule:nonzero;stroke:#000000;stroke-width:0.5;stroke-linecap:butt;stroke-linejoin:round;stroke-miterlimit:10;stroke-dasharray:none;stroke-opacity:1"
         id="path518" /><text
         transform="matrix(1,0,0,-1,45.375,70.442188)"
         style="font-variant:normal;font-weight:normal;font-size:10px;font-family:DejaVuSans;-inkscape-font-specification:DejaVuSans;writing-mode:lr-tb;fill:#000000;fill-opacity:1;fill-rule:nonzero;stroke:none"
         id="text522"><tspan
           x="0"
           y="0"
           id="tspan520">2</tspan></text></g><g
       id="g524"><g
         id="g526"
         clip-path="url(#clipPath530)"><path
           d="M 54,110.4 H 388.8"
           style="fill:none;stroke:#000000;stroke-width:0.5;stroke-linecap:butt;stroke-linejoin:round;stroke-miterlimit:10;stroke-dasharray:1, 3;stroke-dashoffset:0;stroke-opacity:1"
           id="path532" /></g></g><g
       id="g534"><path
         d="m 54,110.4 h 4"
         style="fill:#000000;fill-opacity:1;fill-rule:nonzero;stroke:#000000;stroke-width:0.5;stroke-linecap:butt;stroke-linejoin:round;stroke-miterlimit:10;stroke-dasharray:none;stroke-opacity:1"
         id="path536" /><path
         d="m 388.8,110.4 h -4"
         style="fill:#000000;fill-opacity:1;fill-rule:nonzero;stroke:#000000;stroke-width:0.5;stroke-linecap:butt;stroke-linejoin:round;stroke-miterlimit:10;stroke-dasharray:none;stroke-opacity:1"
         id="path538" /><text
         transform="matrix(1,0,0,-1,44.6875,107.64219)"
         style="font-variant:normal;font-weight:normal;font-size:10px;font-family:DejaVuSans;-inkscape-font-specification:DejaVuSans;writing-mode:lr-tb;fill:#000000;fill-opacity:1;fill-rule:nonzero;stroke:none"
         id="text542"><tspan
           x="0"
           y="0"
           id="tspan540">4</tspan></text></g><g
       id="g544"><g
         id="g546"
         clip-path="url(#clipPath550)"><path
           d="M 54,147.6 H 388.8"
           style="fill:none;stroke:#000000;stroke-width:0.5;stroke-linecap:butt;stroke-linejoin:round;stroke-miterlimit:10;stroke-dasharray:1, 3;stroke-dashoffset:0;stroke-opacity:1"
           id="path552" /></g></g><g
       id="g554"><path
         d="m 54,147.6 h 4"
         style="fill:#000000;fill-opacity:1;fill-rule:nonzero;stroke:#000000;stroke-width:0.5;stroke-linecap:butt;stroke-linejoin:round;stroke-miterlimit:10;stroke-dasharray:none;stroke-opacity:1"
         id="path556" /><path
         d="m 388.8,147.6 h -4"
         style="fill:#000000;fill-opacity:1;fill-rule:nonzero;stroke:#000000;stroke-width:0.5;stroke-linecap:butt;stroke-linejoin:round;stroke-miterlimit:10;stroke-dasharray:none;stroke-opacity:1"
         id="path558" /><text
         transform="matrix(1,0,0,-1,44.96875,144.84219)"
         style="font-variant:normal;font-weight:normal;font-size:10px;font-family:DejaVuSans;-inkscape-font-specification:DejaVuSans;writing-mode:lr-tb;fill:#000000;fill-opacity:1;fill-rule:nonzero;stroke:none"
         id="text562"><tspan
           x="0"
           y="0"
           id="tspan560">6</tspan></text></g><g
       id="g564"><g
         id="g566"
         clip-path="url(#clipPath570)"><path
           d="M 54,184.8 H 388.8"
           style="fill:none;stroke:#000000;stroke-width:0.5;stroke-linecap:butt;stroke-linejoin:round;stroke-miterlimit:10;stroke-dasharray:1, 3;stroke-dashoffset:0;stroke-opacity:1"
           id="path572" /></g></g><g
       id="g574"><path
         d="m 54,184.8 h 4"
         style="fill:#000000;fill-opacity:1;fill-rule:nonzero;stroke:#000000;stroke-width:0.5;stroke-linecap:butt;stroke-linejoin:round;stroke-miterlimit:10;stroke-dasharray:none;stroke-opacity:1"
         id="path576" /><path
         d="m 388.8,184.8 h -4"
         style="fill:#000000;fill-opacity:1;fill-rule:nonzero;stroke:#000000;stroke-width:0.5;stroke-linecap:butt;stroke-linejoin:round;stroke-miterlimit:10;stroke-dasharray:none;stroke-opacity:1"
         id="path578" /><text
         transform="matrix(1,0,0,-1,45,182.04219)"
         style="font-variant:normal;font-weight:normal;font-size:10px;font-family:DejaVuSans;-inkscape-font-specification:DejaVuSans;writing-mode:lr-tb;fill:#000000;fill-opacity:1;fill-rule:nonzero;stroke:none"
         id="text582"><tspan
           x="0"
           y="0"
           id="tspan580">8</tspan></text></g><g
       id="g584"><g
         id="g586"
         clip-path="url(#clipPath590)"><path
           d="M 54,222 H 388.8"
           style="fill:none;stroke:#000000;stroke-width:0.5;stroke-linecap:butt;stroke-linejoin:round;stroke-miterlimit:10;stroke-dasharray:1, 3;stroke-dashoffset:0;stroke-opacity:1"
           id="path592" /></g></g><g
       id="g594"><path
         d="m 54,222 h 4"
         style="fill:#000000;fill-opacity:1;fill-rule:nonzero;stroke:#000000;stroke-width:0.5;stroke-linecap:butt;stroke-linejoin:round;stroke-miterlimit:10;stroke-dasharray:none;stroke-opacity:1"
         id="path596" /><path
         d="m 388.8,222 h -4"
         style="fill:#000000;fill-opacity:1;fill-rule:nonzero;stroke:#000000;stroke-width:0.5;stroke-linecap:butt;stroke-linejoin:round;stroke-miterlimit:10;stroke-dasharray:none;stroke-opacity:1"
         id="path598" /><text
         transform="matrix(1,0,0,-1,39.03125,219.24219)"
         style="font-variant:normal;font-weight:normal;font-size:10px;font-family:DejaVuSans;-inkscape-font-specification:DejaVuSans;writing-mode:lr-tb;fill:#000000;fill-opacity:1;fill-rule:nonzero;stroke:none"
         id="text602"><tspan
           x="0 6.3600001"
           y="0"
           sodipodi:role="line"
           id="tspan600">10</tspan></text></g><g
       id="g604"><g
         id="g606"
         clip-path="url(#clipPath610)"><path
           d="M 54,259.2 H 388.8"
           style="fill:none;stroke:#000000;stroke-width:0.5;stroke-linecap:butt;stroke-linejoin:round;stroke-miterlimit:10;stroke-dasharray:1, 3;stroke-dashoffset:0;stroke-opacity:1"
           id="path612" /></g></g><g
       id="g614"><path
         d="m 54,259.2 h 4"
         style="fill:#000000;fill-opacity:1;fill-rule:nonzero;stroke:#000000;stroke-width:0.5;stroke-linecap:butt;stroke-linejoin:round;stroke-miterlimit:10;stroke-dasharray:none;stroke-opacity:1"
         id="path616" /><path
         d="m 388.8,259.2 h -4"
         style="fill:#000000;fill-opacity:1;fill-rule:nonzero;stroke:#000000;stroke-width:0.5;stroke-linecap:butt;stroke-linejoin:round;stroke-miterlimit:10;stroke-dasharray:none;stroke-opacity:1"
         id="path618" /><text
         transform="matrix(1,0,0,-1,39.375,256.44219)"
         style="font-variant:normal;font-weight:normal;font-size:10px;font-family:DejaVuSans;-inkscape-font-specification:DejaVuSans;writing-mode:lr-tb;fill:#000000;fill-opacity:1;fill-rule:nonzero;stroke:none"
         id="text622"><tspan
           x="0 6.3600001"
           y="0"
           sodipodi:role="line"
           id="tspan620">12</tspan></text><g
         id="g624"
         transform="rotate(90,-45.534375,76.565625)"><text
           transform="matrix(1,0,0,-1,0,0.40625)"
           style="font-variant:normal;font-weight:normal;font-size:10px;font-family:Cmmi10;-inkscape-font-specification:Cmmi10;writing-mode:lr-tb;fill:#000000;fill-opacity:1;fill-rule:nonzero;stroke:none"
           id="text628"><tspan
             x="0"
             y="0"
             id="tspan626">y</tspan></text><text
           transform="matrix(1,0,0,-1,8.0810547,0.40625)"
           style="font-variant:normal;font-weight:normal;font-size:10px;font-family:DejaVuSans;-inkscape-font-specification:DejaVuSans;writing-mode:lr-tb;fill:#000000;fill-opacity:1;fill-rule:nonzero;stroke:none"
           id="text632"><tspan
             x="0 6.3476562 9.1259766 14.335938 18.256836 24.384766 30.722656 36.220703"
             y="0"
             sodipodi:role="line"
             id="tspan630">distance</tspan></text></g><g
         id="g634"
         transform="translate(109.8,180.23636)"><text
           transform="matrix(1,0,0,-1,3.496582,0.828125)"
           style="font-variant:normal;font-weight:normal;font-size:11px;font-family:Cmmi10;-inkscape-font-specification:Cmmi10;writing-mode:lr-tb;fill:#000000;fill-opacity:1;fill-rule:nonzero;stroke:none"
           id="text638"><tspan
             x="0"
             y="0"
             id="tspan636">f</tspan></text><text
           transform="matrix(1,0,0,-1,8.8730469,-1.9779063)"
           style="font-variant:normal;font-weight:normal;font-size:7.7px;font-family:Cmr10;-inkscape-font-specification:Cmr10;writing-mode:lr-tb;fill:#000000;fill-opacity:1;fill-rule:nonzero;stroke:none"
           id="text642"><tspan
             x="0 5.7381544 8.7271681 13.746455 17.164082 19.29587 21.427656 24.845284 29.120136 31.251925 35.526779 38.560909"
             y="0"
             sodipodi:role="line"
             id="tspan640">s(Fellenius)</tspan></text><text
           transform="matrix(1,0,0,-1,52.354414,0.828125)"
           style="font-variant:normal;font-weight:normal;font-size:11px;font-family:Cmr10;-inkscape-font-specification:Cmr10;writing-mode:lr-tb;fill:#000000;fill-opacity:1;fill-rule:nonzero;stroke:none"
           id="text646"><tspan
             x="0"
             y="0"
             id="tspan644">=</tspan></text><text
           transform="matrix(1,0,0,-1,61.598359,0.828125)"
           style="font-variant:normal;font-weight:normal;font-size:11px;font-family:DejaVuSans;-inkscape-font-specification:DejaVuSans;writing-mode:lr-tb;fill:#000000;fill-opacity:1;fill-rule:nonzero;stroke:none"
           id="text650"><tspan
             x="0 6.9985352 10.495117 17.493652 24.492188"
             y="0"
             sodipodi:role="line"
             id="tspan648">1.491</tspan></text></g><g
         id="g652"
         transform="translate(109.8,164.43636)"><text
           transform="matrix(1,0,0,-1,3.496582,0.828125)"
           style="font-variant:normal;font-weight:normal;font-size:11px;font-family:Cmmi10;-inkscape-font-specification:Cmmi10;writing-mode:lr-tb;fill:#000000;fill-opacity:1;fill-rule:nonzero;stroke:none"
           id="text656"><tspan
             x="0"
             y="0"
             id="tspan654">f</tspan></text><text
           transform="matrix(1,0,0,-1,8.8730469,-1.9779063)"
           style="font-variant:normal;font-weight:normal;font-size:7.7px;font-family:Cmr10;-inkscape-font-specification:Cmr10;writing-mode:lr-tb;fill:#000000;fill-opacity:1;fill-rule:nonzero;stroke:none"
           id="text660"><tspan
             x="0 5.7381544 8.7271681 14.178828 16.310616 19.344746 23.6196 27.469599 34.310116 38.584972 40.716759 47.130917"
             y="0"
             sodipodi:role="line"
             id="tspan658">s(BishopSimp</tspan></text><text
           transform="matrix(1,0,0,-1,60.278818,-1.9779063)"
           style="font-variant:normal;font-weight:normal;font-size:7.7px;font-family:Cmmi10;-inkscape-font-specification:Cmmi10;writing-mode:lr-tb;fill:#000000;fill-opacity:1;fill-rule:nonzero;stroke:none"
           id="text664"><tspan
             x="0"
             y="0"
             id="tspan662">.</tspan></text><text
           transform="matrix(1,0,0,-1,62.403838,-1.9779063)"
           style="font-variant:normal;font-weight:normal;font-size:7.7px;font-family:Cmr10;-inkscape-font-specification:Cmr10;writing-mode:lr-tb;fill:#000000;fill-opacity:1;fill-rule:nonzero;stroke:none"
           id="text668"><tspan
             x="0"
             y="0"
             id="tspan666">)</tspan></text><text
           transform="matrix(1,0,0,-1,67.324297,0.828125)"
           style="font-variant:normal;font-weight:normal;font-size:11px;font-family:Cmr10;-inkscape-font-specification:Cmr10;writing-mode:lr-tb;fill:#000000;fill-opacity:1;fill-rule:nonzero;stroke:none"
           id="text672"><tspan
             x="0"
             y="0"
             id="tspan670">=</tspan></text><text
           transform="matrix(1,0,0,-1,76.568242,0.828125)"
           style="font-variant:normal;font-weight:normal;font-size:11px;font-family:DejaVuSans;-inkscape-font-specification:DejaVuSans;writing-mode:lr-tb;fill:#000000;fill-opacity:1;fill-rule:nonzero;stroke:none"
           id="text676"><tspan
             x="0 6.9985352 10.495117 17.493652 24.492188"
             y="0"
             sodipodi:role="line"
             id="tspan674">1.408</tspan></text></g><text
         transform="matrix(1,0,0,-1,162.88437,264.2)"
         style="font-variant:normal;font-weight:normal;font-size:12px;font-family:DejaVuSans;-inkscape-font-specification:DejaVuSans;writing-mode:lr-tb;fill:#000000;fill-opacity:1;fill-rule:nonzero;stroke:none"
         id="text680"><tspan
           x="0 7.5840001 14.688 22.044001 33.731998 41.352001 44.688 52.068001 56.400002 63.743999 71.351997 76.056 83.676003 91.283997 95.987999 100.32 104.544 107.88 111.216"
           y="0"
           sodipodi:role="line"
           id="tspan678">Example-output-file</tspan></text></g></g></svg>
